<svg xmlns="http://www.w3.org/2000/svg" width="1000" height="695" viewBox="0 0 1000 695"><path d="M550 45c4.583-.625 4.583-.625 8.333 0 3.943 7.887 1.988 19.433 1.98 28.23v3.927c-.015 27.345-.845 54.67-1.763 81.998l-.333 10.033q-.317 9.495-.658 18.988l-.195 5.795-.2 5.367-.17 4.675c-.328 4.333-1.05 8.417-1.993 12.653l6.113-1.413c44.66-9.97 90.132-16.168 135.468-22.142l3.488-.46 17.745-2.333 3.592-.472 7.182-.943c51.655-6.783 103.377-14.182 154.38-24.908 5.312-.95 9.982-1.11 15.365-.662l3.333 3.333c-.258 4.725-1.462 6.46-4.808 9.825-10.41 8.093-21.113 15.175-32.483 21.842l-5.422 3.218c-14.505 8.575-29.142 16.913-43.792 25.235a1483 1483 0 0 0-79.5 48.522c-28.52 18.65-57.807 35.967-87.245 53.108a2028 2028 0 0 0-17.682 10.425l-4.028 2.397q-3.57 2.13-7.132 4.277C612.037 350 612.037 350 608.333 350a1702 1702 0 0 0 22.793 25.697q3.875 4.305 7.695 8.658c6.65 7.543 13.363 14.56 21.055 21.042 3.817 3.243 7.483 6.625 11.165 10.02 17.178 15.463 35.967 29.075 54.353 43.05 16.948 12.893 33.708 25.988 50.145 39.528q4.733 3.897 9.493 7.76l4.967 4.037 4.48 3.633c3.127 2.63 6.033 5.292 8.853 8.242-1.287 3.25-1.287 3.25-3.333 6.667-13.533 2.977-27.467 1.233-41.183.3l-7.767-.5q-10.362-.673-20.725-1.383a9040 9040 0 0 0-12.873-.865c-50.915-3.4-101.737-7.567-152.425-13.522-12.975-1.517-25.795-2.895-38.882-2.677l-3.955.003a273 273 0 0 0-10.523.31l-4.687.13c-5.847 2.463-7.373 7.595-9.792 13.1a1632 1632 0 0 1-3.465 7.33l-1.825 3.872c-3.145 6.463-6.618 12.733-10.128 19.007l-2.155 3.86a722 722 0 0 1-13.157 22.388c-7.457 12.222-14.35 24.753-21.25 37.292l-1.745 3.167a2977 2977 0 0 0-17.417 31.997c-.835 1.555-1.673 3.108-2.535 4.71a993 993 0 0 0-4.575 8.605l-2.042 3.788-1.733 3.273c-1.827 2.481-1.827 2.481-6.827 4.148-3.49-1.425-3.49-1.425-6.667-5-1.417-5.082-1.87-10.293-2.5-15.52-2.727-18.427-7.742-35.762-13.437-53.438-.433-1.34-.863-2.678-1.307-4.058A3265 3265 0 0 0 375 570l-1.362-4.087-4.022-12.04-1.295-3.873a3147 3147 0 0 0-6.15-18.222l-1.128-3.33q-1.5-4.42-3.012-8.837C356.667 515 356.667 515 356.667 510l-6.167.038c-21.842.093-43.647-.325-65.48-.965q-8.928-.258-17.858-.503-25.355-.7-50.708-1.433c-52.722-1.52-105.376-2.54-158.121-2.137L55 498.333c7.372-8.633 16.31-12.97 26.355-18.02l5.24-2.68c5.017-2.56 10.042-5.1 15.072-7.633l6.75-3.443a1513 1513 0 0 1 19.916-9.89l4.952-2.43c26.903-13.18 54.008-25.842 81.31-38.172l3.425-1.547 3.412-1.54c19.038-8.613 37.962-17.483 56.902-26.312-7.4-36.015-15.92-71.712-24.687-107.413a16108 16108 0 0 1-4.155-16.993q-2.55-10.455-5.11-20.905l-1-4.09a4435 4435 0 0 0-10.31-41.425l-1.663-6.552q-1.523-5.973-3.072-11.94l-1.345-5.278-1.173-4.538A47.5 47.5 0 0 1 225 155c1.667-1.667 1.667-1.667 5.358-2.285 6.438.858 9.53 4.417 13.912 8.847 8.757 8.417 17.883 15.793 27.737 22.918 3.4 2.483 6.76 5.012 10.122 7.545 13.687 10.268 27.527 20.095 41.933 29.328 18.812 12.088 35.938 24.8 52.043 40.382 6.485 6.235 13.122 11.53 20.562 16.598 13.392-17.025 25.022-35.088 36.667-53.333l2.928-4.58c8.32-13.018 16.627-26.048 24.825-39.145 11.138-17.762 22.588-35.287 34.28-52.688 14.857-22.122 29.567-44.305 43.733-66.875l2.212-3.5a495 495 0 0 0 3.913-6.32c1.483-2.37 3.115-4.643 4.775-6.892m-1.667 21.667a457 457 0 0 0-6.94 11.12c-6.817 11.067-13.917 21.908-21.223 32.657l-3.063 4.51a9028 9028 0 0 1-12.53 18.378c-12.868 18.842-25.163 37.867-36.777 57.507-5.85 9.88-12.087 19.483-18.425 29.058l-3.603 5.475q-5.375 8.153-10.772 16.295l-3.357 5.072a8880 8880 0 0 1-12.095 18.222c-6.38 9.555-12.927 18.983-19.548 28.373-9.158-3.888-15.265-9.433-22.292-16.25q-3.35-3.183-6.705-6.36l-3.19-3.042c-16.357-15.587-34.53-28.832-53.855-40.495-17.3-10.487-33.023-23.1-48.958-35.52q-4.99-3.867-9.988-7.717a2823 2823 0 0 1-7.843-6.078c-3.617-2.887-3.617-2.887-7.168-4.538 1.038 12.745 3.835 24.677 7.017 37.045q.823 3.235 1.64 6.473a6865 6865 0 0 0 3.488 13.735c3.062 12.013 6.08 24.037 9.1 36.06.452 1.807.452 1.807.917 3.65a4548 4548 0 0 1 15.727 64.417q1.163 4.925 2.338 9.845c3.742 15.675 7.355 30.95 8.107 47.108a197.5 197.5 0 0 1-27.213 14.948l-3.93 1.802q-4.15 1.903-8.303 3.792-6.573 2.995-13.137 6.007a14005 14005 0 0 1-17.632 8.073c-28.55 13.05-56.967 26.348-85.202 40.067l-3.65 1.772a4395 4395 0 0 0-50.935 25.205c6.315 2.047 12.538 1.833 19.095 1.742l7.863-.057 4.248-.037c29.308-.228 58.573.25 87.868 1.112l5.693.167q17.295.513 34.59 1.058c15.6.485 31.2.953 46.8 1.42q8.04.245 16.08.5c31.513 1.8 31.513 1.8 62.762-.905l.843 3.617c3.105 12.907 6.978 25.393 11.278 37.945l4.167 12.338q3.238 9.55 6.495 19.095c19.658 57.739 19.658 57.739 23.885 85.339 3.675-4.682 6.627-9.403 9.408-14.662l2.547-4.777 2.733-5.145c7.53-14.042 15.258-27.93 23.333-41.667l2.872-4.892 2.933-4.998a3975 3975 0 0 0 18.687-32.16q1.725-3 3.463-5.995c12.768-19.267 12.768-19.267 19.023-40.705 30.17-4.363 60.542-1.232 90.642 2.227a2468 2468 0 0 0 107.9 9.96l5.79.408q15.597 1.093 31.197 2.113 6.277.412 12.557.83l7.11.465 5.957.387c8.507.427 17 .422 25.515.277-17.71-18.098-38.183-33.1-58.333-48.333-15.168-11.503-30.048-23.317-44.75-35.412a637 637 0 0 0-7.767-6.225c-11.387-9.082-21.762-18.84-31.983-29.185a1863 1863 0 0 0-7.817-7.853c-8.16-8.188-16.167-16.45-23.665-25.255a142 142 0 0 0-4.95-5.46c-2.402-2.59-2.402-2.59-5.735-7.277.19-4.172.19-4.172 1.667-8.333 2.993-2.512 2.993-2.512 6.967-4.617l4.523-2.465 4.968-2.607q5.267-2.867 10.527-5.748l5.613-3.055c9.703-5.372 19.23-11.038 28.755-16.717l2.907-1.73q9.546-5.681 19.073-11.394l4.237-2.537c15.363-9.23 30.483-18.805 45.555-28.505 31.263-20.093 62.915-39.345 95.45-57.317a687 687 0 0 0 33.197-19.662l4.092-2.578a387 387 0 0 0 9.135-6.068v-1.667c-11.073.645-21.91 2.173-32.818 4.1l-4.198.742-9.07 1.6c-41.395 7.257-82.967 12.767-124.63 18.203-42.303 5.527-84.373 11.608-126.35 19.287l-4.97.908q-4.483.823-8.962 1.675c-6.425 1.197-12.43 2.153-19.002 1.818l.277-2.813c2.39-24.757 3.863-49.467 4.733-74.322.2-5.692.417-11.383.633-17.073.817-21.942 1.218-43.837 1.023-65.792z" fill="#D86394"/></svg>